<svg width="195" height="151" viewBox="0 0 195 151" fill="none" xmlns="http://www.w3.org/2000/svg">
<rect width="194" height="151" fill="black" fill-opacity="0" transform="translate(0.423676)"/>
<path d="M107.474 50.48C105.48 50.48 103.79 49.7433 102.404 48.27C101.017 46.71 100.324 44.63 100.324 42.03C100.324 38.3033 100.887 35.27 102.014 32.93C103.14 30.5033 104.397 28.5967 105.784 27.21C107.344 25.65 109.207 24.48 111.374 23.7L112.674 25.78C111.2 26.4733 109.9 27.2967 108.774 28.25C107.82 29.1167 106.91 30.1567 106.044 31.37C105.264 32.4967 104.874 33.8833 104.874 35.53C104.874 36.1367 104.96 36.6133 105.134 36.96C105.22 37.22 105.35 37.3933 105.524 37.48C105.697 37.3933 105.957 37.3067 106.304 37.22C106.564 37.1333 106.824 37.0467 107.084 36.96C107.43 36.8733 107.777 36.83 108.124 36.83C110.117 36.83 111.677 37.4367 112.804 38.65C114.017 39.7767 114.624 41.3367 114.624 43.33C114.624 45.3233 113.93 47.0133 112.544 48.4C111.157 49.7867 109.467 50.48 107.474 50.48ZM89.2737 50.48C87.2803 50.48 85.5903 49.7433 84.2037 48.27C82.817 46.71 82.1237 44.63 82.1237 42.03C82.1237 38.3033 82.687 35.27 83.8137 32.93C84.9403 30.5033 86.197 28.5967 87.5837 27.21C89.1437 25.65 91.007 24.48 93.1737 23.7L94.4737 25.78C93.0003 26.4733 91.7003 27.2967 90.5737 28.25C89.6203 29.1167 88.7103 30.1567 87.8437 31.37C87.0637 32.4967 86.6737 33.8833 86.6737 35.53C86.6737 36.1367 86.7603 36.6133 86.9337 36.96C87.0203 37.22 87.1503 37.3933 87.3237 37.48C87.497 37.3933 87.757 37.3067 88.1037 37.22C88.3637 37.1333 88.6237 37.0467 88.8837 36.96C89.2303 36.8733 89.577 36.83 89.9237 36.83C91.917 36.83 93.477 37.4367 94.6037 38.65C95.817 39.7767 96.4237 41.3367 96.4237 43.33C96.4237 45.3233 95.7303 47.0133 94.3437 48.4C92.957 49.7867 91.267 50.48 89.2737 50.48Z" fill="white"/>
<path d="M0.423676 41.5H56.4237M140.424 41.5H194.424" stroke="white"/>
</svg>
